<svg xmlns="http://www.w3.org/2000/svg" viewBox="0 0 48 48" id="WeightScale"><path fill="#989898" d="M40 47H8l3-28h26c3.23 30 2.71 25.2 3 28Z" class="colordb5669 svgShape"></path><path fill="#acacac" d="M39.8 45H19a6 6 0 0 1-6-6V19h24Z" class="colorf26674 svgShape"></path><path fill="#848484" d="M19.01 15h10v4h-10z" class="colorc4455e svgShape"></path><path fill="#7c7c7c" d="M45 1a10.59 10.59 0 0 1-10.24 8h-21.5A10.57 10.57 0 0 1 3 1Z" class="color7c7d7d svgShape"></path><path fill="#919191" d="M45 1a10.61 10.61 0 0 1-4 6H17.06a6 6 0 0 1-6-6C11 .9 9.82 1 45 1Z" class="color919191 svgShape"></path><path fill="#848484" d="M21.01 9h6v6h-6z" class="colorc4455e svgShape"></path><path fill="#dedede" d="M33 33c0 8.72-11.12 12.11-16 5.61A9 9 0 1 1 33 33Z" class="colordad7e5 svgShape"></path><path fill="#ffffff" d="M33 33a8.94 8.94 0 0 1-4.65 7.85c4.38-7.76-4.32-16.66-12.2-12.2C20.47 20.57 33 23.68 33 33Z" class="coloredebf2 svgShape"></path><path fill="#4f4f4f" d="M24 35a2 2 0 1 1 2-2 2 2 0 0 1-2 2Zm0-2Z" class="color374f68 svgShape"></path><path fill="#5a5a5a" d="M24 31a2 2 0 0 0-1.82 1.18 2 2 0 0 1 2.64 2.64A2 2 0 0 0 24 31Z" class="color425b72 svgShape"></path><path d="M45.79.38C45.35-.18 48.72 0 3 0a1 1 0 0 0-1 1.24A11.54 11.54 0 0 0 13.25 10H20v4h-1a1 1 0 0 0-1 1v3h-7a1 1 0 0 0-1 .89c-3.26 30.49-3.17 28.3-2.74 28.78S5.52 48 40 48a1 1 0 0 0 1-1.11l-3-28a1 1 0 0 0-1-.89h-7v-3a1 1 0 0 0-1-1h-1v-4h6.75A11.54 11.54 0 0 0 46 1.24a1 1 0 0 0-.21-.86ZM38.89 46H9.11l2.79-26h24.2ZM20 18v-2h8v2Zm6-4h-4v-4h4Zm8.75-6h-21.5a9.55 9.55 0 0 1-8.88-6h39.26a9.55 9.55 0 0 1-8.88 6Z" fill="#000000" class="color000000 svgShape"></path><path d="M25 31.28V29a1 1 0 0 0-2 0v2.28a2 2 0 1 0 2 0Z" fill="#000000" class="color000000 svgShape"></path><path d="M16.93 25.93a10 10 0 1 0 14.14 0 10 10 0 0 0-14.14 0Zm15 6.07H31a1 1 0 0 0 0 2h.93a7.94 7.94 0 0 1-1.62 3.9l-.65-.66a1 1 0 0 0-1.42 1.42l.66.65a7.94 7.94 0 0 1-3.9 1.62V40a1 1 0 0 0-2 0v.93a7.94 7.94 0 0 1-3.9-1.62l.66-.65a1 1 0 0 0-1.42-1.42l-.65.66a7.94 7.94 0 0 1-1.62-3.9H17a1 1 0 0 0 0-2h-.93a7.94 7.94 0 0 1 1.62-3.9l.65.66a1 1 0 0 0 1.42-1.42l-.66-.65a7.94 7.94 0 0 1 3.9-1.62V26a1 1 0 0 0 2 0v-.93a7.94 7.94 0 0 1 3.9 1.62l-.66.65a1 1 0 0 0 1.42 1.42l.65-.66a7.94 7.94 0 0 1 1.62 3.9Z" fill="#000000" class="color000000 svgShape"></path></svg>